#!OML:ASF I:\Actors\actors\Patient Classification 2\Patient 1\Session 1\actor1.ASF
:FULLY-SPECIFIED
:DEGREES
499
root -1.94359 18.2536 4.27786 -1.41308 -1.96318 -4.92577
lowerback 21.2015 0.884099 2.23412
upperback 6.81367 1.61192 0.354836
thorax -4.37855 0.789994 -1.28343
lowerneck -9.74996 14.5437 16.6044
upperneck 8.69277 18.9291 -13.4254
head 7.11428 8.98592 -4.76742
rclavicle -8.94531e-015 1.23246e-014
rhumerus -42.3695 45.698 -120.563
rradius 131.625
rwrist 15.3514
rhand -22.8545 -21.8772
rfingers 7.12502
rthumb 3.58357 -51.8268
lclavicle -8.94531e-015 1.23246e-014
lhumerus -38.4763 -37.611 119.521
lradius 119.306
lwrist 10.7123
lhand -20.3163 -36.9341
lfingers 7.12502
lthumb 6.03446 -7.04006
rfemur -9.22248 0.292642 24.1485
rtibia 27.7499
rfoot -23.2117 -8.41911
rtoes -7.98017
lfemur -15.3247 -6.75232 -4.92936
ltibia 35.8514
lfoot -20.8889 9.01778
ltoes -55.6317
500
root -1.99688 18.2591 4.29104 -1.4202 -1.5487 -5.03656
lowerback 21.1713 0.865305 2.39097
upperback 6.80228 1.62196 0.373748
thorax -4.37072 0.796239 -1.35431
lowerneck -9.33666 14.7953 16.7896
upperneck 8.48531 19.3431 -13.7613
head 7.09686 9.19055 -4.85599
rclavicle 3.53837e-014 -1.03368e-014
rhumerus -42.5139 45.7385 -120.704
rradius 131.646
rwrist 15.1316
rhand -23.2422 -21.8967
rfingers 7.12502
rthumb 3.20917 -51.8523
lclavicle 3.53837e-014 -1.03368e-014
lhumerus -38.4408 -37.6784 119.536
lradius 119.313
lwrist 10.7591
lhand -20.3274 -36.852
lfingers 7.12502
lthumb 6.02377 -6.95766
rfemur -9.04341 0.244542 24.4621
rtibia 27.5412
rfoot -23.4029 -8.69785
rtoes -7.35527
lfemur -15.3648 -7.34407 -4.68221
ltibia 35.7579
lfoot -20.9893 8.4392
ltoes -55.5433
501
root -2.04526 18.2678 4.3048 -1.40113 -1.10476 -5.11334
lowerback 21.11 0.833476 2.58028
upperback 6.78322 1.61927 0.364344
thorax -4.35369 0.796773 -1.47027
lowerneck -8.93433 14.9845 16.941
upperneck 8.30335 19.6681 -14.0363
head 7.06768 9.35525 -4.93512
rclavicle -1.78906e-015 -9.54166e-015
rhumerus -42.6552 45.7017 -120.83
rradius 131.716
rwrist 15.0274
rhand -23.1627 -21.8888
rfingers 7.12502
rthumb 3.28593 -51.8433
lclavicle -1.78906e-015 -9.54166e-015
lhumerus -38.4392 -37.7215 119.57
lradius 119.326
lwrist 10.8415
lhand -20.311 -36.9758
lfingers 7.12502
lthumb 6.03954 -7.08192
rfemur -8.8557 0.155642 24.7169
rtibia 27.268
rfoot -23.539 -8.95178
rtoes -6.80973
lfemur -15.4717 -7.90718 -4.50032
ltibia 35.7348
lfoot -21.1621 8.03657
ltoes -55.5073
502
root -2.09037 18.2771 4.31784 -1.38986 -0.647161 -5.20899
lowerback 21.0788 0.813254 2.73189
upperback 6.7765 1.62522 0.367269
thorax -4.33993 0.80133 -1.55416
lowerneck -8.63931 15.1626 17.1481
upperneck 8.17883 19.9564 -14.2866
head 7.07332 9.50014 -5.01155
rclavicle -1.76918e-014 9.54166e-015
rhumerus -42.7155 45.7132 -120.961
rradius 131.688
rwrist 15.005
rhand -23.2321 -21.8947
rfingers 7.12502
rthumb 3.21895 -51.8502
lclavicle -1.76918e-014 9.54166e-015
lhumerus -38.4632 -37.812 119.598
lradius 119.363
lwrist 10.8753
lhand -20.4149 -37.2749
lfingers 7.12502
lthumb 5.93926 -7.37813
rfemur -8.62673 0.06856 24.9825
rtibia 26.9331
rfoot -23.6545 -9.22179
rtoes -6.45488
lfemur -15.6199 -8.40786 -4.3123
ltibia 35.7876
lfoot -21.3623 7.84997
ltoes -55.6694
503
root -2.13078 18.288 4.33069 -1.37268 -0.216273 -5.29743
lowerback 21.0748 0.793853 2.82471
upperback 6.77297 1.62093 0.370718
thorax -4.33903 0.800357 -1.60221
lowerneck -8.48884 15.364 17.3234
upperneck 8.14738 20.2504 -14.4162
head 7.11727 9.6455 -5.03274
rclavicle 1.39149e-015 1.51076e-014
rhumerus -42.7055 45.7829 -121.027
rradius 131.631
rwrist 15.0152
rhand -23.3836 -21.8541
rfingers 7.12502
rthumb 3.07262 -51.8118
lclavicle 1.39149e-015 1.51076e-014
lhumerus -38.473 -37.8714 119.562
lradius 119.485
lwrist 10.8684
lhand -20.5159 -37.5506
lfingers 7.12502
lthumb 5.8417 -7.65114
rfemur -8.38062 -0.0361869 25.2143
rtibia 26.5374
rfoot -23.7221 -9.47535
rtoes -6.10016
lfemur -15.8096 -8.87871 -4.1446
ltibia 35.9244
lfoot -21.5795 7.67857
ltoes -55.6001
504
root -2.15704 18.3014 4.34096 -1.31385 0.274007 -5.25289
lowerback 21.1202 0.71744 2.98401
upperback 6.72415 1.55262 0.268838
thorax -4.40998 0.76745 -1.78732
lowerneck -8.24614 15.5596 17.4358
upperneck 7.99772 20.5262 -14.4187
head 7.08363 9.79355 -5.0181
rclavicle 1.23246e-014 -2.78299e-015
rhumerus -42.6528 45.7471 -121.035
rradius 131.58
rwrist 15.0835
rhand -23.3652 -21.6295
rfingers 7.12502
rthumb 3.09038 -51.5868
lclavicle 1.23246e-014 -2.78299e-015
lhumerus -38.5215 -37.9069 119.492
lradius 119.679
lwrist 10.7902
lhand -20.6261 -37.5636
lfingers 7.12502
lthumb 5.73539 -7.66125
rfemur -8.1604 -0.313074 25.227
rtibia 26.093
rfoot -23.7208 -9.62703
rtoes -5.69283
lfemur -16.1199 -9.35132 -4.17571
ltibia 36.1432
lfoot -21.7163 7.43592
ltoes -55.4669
